<svg width="35" height="36" viewBox="0 0 35 36" fill="none" xmlns="http://www.w3.org/2000/svg">
<path d="M17.5 4.79999C13.5777 4.79999 8.23072 4.86451 7.15039 4.96171C5.92889 5.70691 3.52333 8.27937 3.5 9.02577V10.2609C3.5 11.8257 4.92126 13.2 6.21159 13.2C7.76209 13.2 9.05534 11.8785 9.05534 10.3101C9.05534 11.8785 10.3007 13.2 11.8512 13.2C13.4017 13.2 14.6107 11.8785 14.6107 10.3101C14.6107 11.8785 15.9358 13.2 17.4863 13.2H17.516C19.0665 13.2 20.3916 11.8785 20.3916 10.3101C20.3916 11.8785 21.5994 13.2 23.1488 13.2C24.6993 13.2 25.9469 11.8785 25.9469 10.3101C25.9469 11.8785 27.2379 13.2 28.7884 13.2C30.0776 13.2 31.5 11.8257 31.5 10.2609V9.02577C31.4767 8.28057 29.0711 5.70691 27.8496 4.96171C24.0533 4.82371 21.4223 4.79999 17.5 4.79999ZM14.5651 13.964C14.4169 14.2292 14.2329 14.4723 14.0182 14.6859C13.4326 15.2739 12.6308 15.6398 11.7464 15.6398C10.8959 15.641 10.0779 15.2979 9.47005 14.6859C9.25772 14.4723 9.09752 14.2445 8.95052 13.9781C8.80352 14.2445 8.59664 14.4711 8.38314 14.6859C7.7753 15.2979 6.95727 15.641 6.10677 15.6398C6.0006 15.6398 5.89127 15.6089 5.80143 15.5765C5.6766 16.9109 5.6492 17.4497 5.63053 18.3797V18.3844C5.6282 18.8572 5.62603 19.2459 5.6237 19.7859C5.6482 22.5867 5.35454 28.8635 6.82454 30.4055C9.10304 30.9503 13.2942 31.1988 17.5 31.2C21.7058 31.1988 25.897 30.9491 28.1755 30.4031C29.6455 28.8611 29.3518 22.5832 29.3763 19.7836C29.374 19.2436 29.3718 18.8572 29.3695 18.3844V18.3797C29.3508 17.4497 29.2733 16.9109 29.1484 15.5765C29.0586 15.6077 28.947 15.6375 28.8408 15.6375C27.9903 15.6387 27.1723 15.2979 26.5645 14.6859C26.3521 14.4723 26.1475 14.2445 25.9993 13.9781H25.9971C25.8489 14.2445 25.6887 14.4723 25.4775 14.6859C24.8697 15.2979 24.0517 15.6398 23.2012 15.6398C22.3168 15.6398 21.515 15.2751 20.9294 14.6859C20.7159 14.4723 20.5341 14.2292 20.3848 13.964C20.2378 14.2292 20.0559 14.4723 19.8447 14.6859C19.2369 15.2979 18.4189 15.6398 17.5684 15.6398C17.538 15.6398 17.5053 15.6387 17.4749 15.6375C17.4446 15.6387 17.413 15.6398 17.3815 15.6398C16.531 15.641 15.713 15.2979 15.1051 14.6859C14.8928 14.4723 14.7109 14.2292 14.5651 13.964ZM12.7946 17.5734V17.5758C13.6253 17.577 14.3637 17.5763 15.2783 18.6023C15.9974 18.5244 16.7483 18.484 17.5 18.4851H17.5023C18.254 18.484 19.0049 18.5244 19.724 18.6023C20.6386 17.5763 21.3747 17.577 22.2054 17.5758H22.2077V17.5734C22.5997 17.5734 24.1702 17.5732 25.2633 20.7328L26.4368 25.0687C27.3072 28.2931 26.1583 28.371 24.7256 28.3734C22.5999 28.2918 21.4238 26.7056 21.4238 25.118C20.2467 25.316 18.8754 25.4156 17.5023 25.4156C16.1291 25.4156 14.7544 25.316 13.5785 25.118C13.5785 26.7056 12.4024 28.2918 10.2767 28.3734C8.84286 28.371 7.69282 28.2931 8.56315 25.0687L9.73893 20.7328C10.8321 17.5732 12.4014 17.5734 12.7946 17.5734ZM17.5 19.9594C17.4988 19.9618 15.6041 21.7515 15.2646 22.3875L16.5042 22.3359V23.4469C16.5042 23.4985 17.003 23.4802 17.5 23.4562C17.9982 23.4802 18.4958 23.4985 18.4958 23.4469V22.3359L19.7354 22.3875C19.3959 21.7503 17.5 19.9594 17.5 19.9594Z" fill="white"/>
</svg>
